<svg height="512" viewBox="0 0 60 60" width="512" xmlns="http://www.w3.org/2000/svg"><g id="050---Interior-Design"><path id="Shape" d="m33.016 6h2c.5522847 0 1-.44771525 1-1s-.4477153-1-1-1h-2c-.5522847 0-1 .44771525-1 1s.4477153 1 1 1z"/><path id="Shape" d="m7.016 6h22c.5522847 0 1-.44771525 1-1s-.4477153-1-1-1h-22c-.55228475 0-1 .44771525-1 1s.44771525 1 1 1z"/><path id="Shape" d="m58.721 29.111c1.844631-2.0550516 1.6740514-5.2163689-.3810001-7.0609999s-5.2163688-1.6740516-7.0609999.3809999c-5.034 5.605-2.734 3.044-11.263 12.543v-12.974h9c1.6568542 0 3-1.3431458 3-3v-12c-.0049584-3.86393756-3.1360624-6.99504164-7-7h-38c-3.86416566.00440864-6.99559136 3.13583434-7 7v50c0 1.6568542 1.34314575 3 3 3h34c1.6568542 0 3-1.3431458 3-3v-7.059zm-5.953-5.344c.7108774-.8168661 1.8068033-1.1872348 2.8674721-.9690636s1.9214443.991018 2.2522048 2.0221409c.3307606 1.0311228.0801659 2.1604718-.6556769 2.9549227l-3.34 3.725c-2.757-2.475-1.724-1.548-4.465-4.01zm-2.752-16.767v12c0 .5522847-.4477153 1-1 1h-9v-13c0-2.76142375 2.2385763-5 5-5s5 2.23857625 5 5zm-13 51h-34c-.55228475 0-1-.4477153-1-1v-50c.00330612-2.76005315 2.23994685-4.99669388 5-5h33.11c-1.3492728 1.31362278-2.1102472 3.11687977-2.11 5v30.2l-4.032 4.489c-.1555616-1.5237211-1.4363663-2.6841268-2.968-2.689v-15h2.94c.6534564.0124863 1.2721839-.2935215 1.6588659-.8204353.386682-.5269139.4930319-1.208936.2851341-1.8285647l-2.469-7c-.2975927-.816184-1.0762762-1.3570588-1.945-1.351h-6.941c-.8686314-.0057603-1.6471599.5350068-1.945 1.351l-2.47 7c-.2079619.6197985-.1014992 1.3020164.2854194 1.8289816.3869186.5269653 1.0059492.8328356 1.6595806.8200184h2.941v15c-1.6568542 0-3 1.3431458-3 3v2h-3v-3.278c.6157032-.3554644.996422-1.0110622 1-1.722v-1.78c.788285-.7019526 1.146099-1.7687339.9405172-2.8040439s-.9438397-1.884444-1.9405172-2.2319561v-6.184c0-2.209139-1.790861-4-4-4h-5c-2.209139 0-4 1.790861-4 4v6.184c-.99711482.3470254-1.73584144 1.1962083-1.94147251 2.2317664-.20563106 1.035558.15259745 2.1025636.94147251 2.8042336v1.78c.002145.7113268.38324874 1.3675874 1 1.722v3.278c-.55228475 0-1 .4477153-1 1s.44771525 1 1 1h25.084l-2.932 8h-16.152c-.5522847 0-1 .4477153-1 1s.4477153 1 1 1h17c.3865378-.0004669.7376777-.2251965.9-.576l8.1-4v5.576c0 .5522847-.4477153 1-1 1zm-.183-8.223-6.092 3.008 2.338-6.379zm-14.758-27.777c-.1.027-.344.8 2.47-7l7 .017 2.411 6.983zm4.941 2h2v15h-2zm4 17c.5522847 0 1 .4477153 1 1v1.884c-.149.166.751.116-8 .116v-2c0-.5522847.4477153-1 1-1zm-13-7c.5522847 0 1 .4477153 1 1s-.4477153 1-1 1-1-.4477153-1-1 .4477153-1 1-1zm-1-1.816c-.846935.3025307-1.5134693.969065-1.816 1.816h-5.369c-.30231576-.8467209-.9684458-1.5132179-1.815-1.816v-6.184c0-1.1045695.8954305-2 2-2h5c1.1045695 0 2 .8954305 2 2zm-10 1.816c.55228475 0 1 .4477153 1 1s-.44771525 1-1 1-1-.4477153-1-1 .44771525-1 1-1zm2.815 2h5.369c.4222546 1.1943509 1.5492146 1.9947486 2.816 2v1h-11v-1c1.26641797-.0056727 2.39286915-.8059932 2.815-2zm-1.815 5h1.784l-.6 3h-1.184zm3.819 0h1.365l.6 3h-2.565zm3.4 0h1.781v3h-1.181zm23.29 7.608-4.464-4.008 14.03-15.625 4.465 4.009z"/><path id="Shape" d="m9.016 54h-3c-.55228475 0-1 .4477153-1 1s.44771525 1 1 1h3c.55228475 0 1-.4477153 1-1s-.44771525-1-1-1z"/></g></svg>